first trial
nRows=25
nColumns=38

# SIMM Motion File Header:
name Sujet_01_velo_60.mvnx
datacolumns 38
datarows 25
otherdata 1
range 17.1160 17.5160
endheader
time pelvis_tilt  pelvis_list  pelvis_rotation  pelvis_tx  pelvis_ty  pelvis_tz  hip_flexion_r  hip_adduction_r  hip_rotation_r  knee_angle_r  ankle_angle_r  subtalar_angle_r  mtp_angle_r  hip_flexion_l  hip_adduction_l  hip_rotation_l  knee_angle_l  ankle_angle_l  subtalar_angle_l  mtp_angle_l  lumbar_extension  lumbar_bending  lumbar_rotation  arm_flex_r  arm_add_r  arm_rot_r  elbow_flex_r  pro_sup_r  wrist_flex_r  wrist_dev_r  arm_flex_l  arm_add_l  arm_rot_l  elbow_flex_l  pro_sup_l  wrist_flex_l  wrist_dev_l
17.1160	-15.3044	-1.3509	-19.8446	0.0000	1.2500	-0.0000	90.0609	-0.5403	1.6915	84.6833	2.0367	-14.2671	-0.0000	54.4944	-8.5869	-5.1003	59.3263	-19.3070	16.1465	0.0000	-13.6211	1.1928	-0.3100	80.6768	-21.3118	45.1621	5.4744	113.7071	-37.4761	-3.1436	79.1056	-26.1146	48.3996	10.5475	114.6679	-17.2932	5.8833	
17.1320	-15.1326	-1.3588	-19.8777	0.0000	1.2500	-0.0000	87.7947	-0.8399	1.0264	81.1513	2.0707	-13.6490	0.0000	56.1094	-8.5739	-4.7880	63.1978	-19.1772	16.3713	-0.0000	-13.6632	1.2090	-0.2921	80.6937	-21.4572	45.1307	5.4608	113.8067	-37.5023	-3.1465	79.1247	-25.9526	48.2491	10.2780	114.8365	-16.9972	5.8971	
17.1490	-14.9610	-1.3701	-19.8056	0.0000	1.2500	-0.0000	85.2930	-1.1510	0.3656	77.4743	1.9247	-13.0729	-0.0000	57.8763	-8.4182	-4.5356	67.0203	-19.2557	16.6764	0.0000	-13.6902	1.2444	-0.3081	80.6689	-21.6184	45.0667	5.4396	113.9248	-37.5311	-3.1749	79.0894	-25.7974	48.1355	10.0605	114.9537	-16.7837	5.9128	
17.1660	-14.7887	-1.3982	-19.6030	0.0000	1.2500	-0.0000	82.5433	-1.4790	-0.2848	73.6484	1.6123	-12.5817	-0.0000	59.8045	-8.0811	-4.4369	70.7800	-19.6299	17.1458	0.0000	-13.6967	1.3083	-0.3609	80.5944	-21.7986	44.9459	5.4017	114.0865	-37.5579	-3.2372	78.9614	-25.6636	48.0897	9.9350	114.9651	-16.7190	5.9364	
17.1820	-14.6170	-1.4305	-19.2956	0.0000	1.2500	-0.0000	79.5596	-1.8035	-0.9532	69.6788	1.1164	-12.1411	-0.0000	61.8791	-7.6006	-4.4246	74.5087	-20.1967	17.6907	0.0000	-13.6880	1.3911	-0.4478	80.4775	-21.9945	44.7918	5.3562	114.2666	-37.5873	-3.3248	78.7785	-25.5363	48.0809	9.8617	114.9250	-16.7368	5.9618	
17.1990	-14.4782	-1.4213	-18.9285	0.0000	1.2500	-0.0000	76.5080	-2.0725	-1.5933	65.6886	0.3729	-11.8115	-0.0000	64.0726	-7.0141	-4.2996	78.1010	-20.7785	18.0986	0.0000	-13.6679	1.4580	-0.5664	80.3349	-22.1969	44.6767	5.3126	114.3994	-37.6270	-3.4339	78.6066	-25.4116	48.0492	9.8238	114.9438	-16.7675	5.9750	
17.2160	-14.3855	-1.3583	-18.5091	0.0000	1.2500	-0.0000	73.4000	-2.2777	-2.2192	61.6774	-0.6431	-11.6834	-0.0000	66.4014	-6.3184	-4.0113	81.5261	-21.3982	18.3194	-0.0000	-13.6328	1.4970	-0.7185	80.1646	-22.4019	44.6384	5.2591	114.4531	-37.6803	-3.5745	78.4571	-25.2930	47.9542	9.8270	115.0876	-16.8034	5.9589	
17.2320	-14.3246	-1.2532	-18.0301	0.0000	1.2500	-0.0000	70.2272	-2.4297	-2.8215	57.6466	-1.9009	-11.6643	0.0000	68.8433	-5.4994	-3.6374	84.7962	-22.0521	18.4178	0.0000	-13.5866	1.5197	-0.9020	79.9683	-22.6131	44.6389	5.2072	114.4597	-37.7439	-3.7365	78.3188	-25.1771	47.8363	9.8654	115.2904	-16.8523	5.9306	
17.2490	-14.2875	-1.0960	-17.5151	0.0000	1.2500	-0.0000	67.1268	-2.5284	-3.3071	53.7226	-3.3789	-11.5346	-0.0000	71.3137	-4.5722	-3.1651	87.8502	-22.5412	18.3687	0.0000	-13.5453	1.5271	-1.1079	79.7678	-22.8319	44.6362	5.2011	114.4492	-37.8155	-3.8855	78.2244	-25.0505	47.7562	9.9048	115.4634	-16.8674	5.9269	
17.2660	-14.2775	-0.8651	-16.9591	0.0000	1.2500	-0.0000	64.1194	-2.5785	-3.6611	49.8936	-5.1290	-11.0869	-0.0000	73.8145	-3.5135	-2.5360	90.6563	-22.8652	18.1193	-0.0000	-13.5115	1.5116	-1.3385	79.5592	-23.0700	44.6132	5.2749	114.4333	-37.8960	-4.0091	78.1850	-24.9104	47.7456	9.9411	115.5693	-16.8157	5.9641	
17.2820	-14.2891	-0.5814	-16.3666	0.0000	1.2500	-0.0000	61.1834	-2.6002	-3.8986	46.1797	-7.1047	-10.5092	0.0000	76.3414	-2.3353	-1.8313	93.2201	-23.0258	17.7262	-0.0000	-13.4829	1.4811	-1.5912	79.3462	-23.3156	44.5867	5.3945	114.4000	-37.9844	-4.1197	78.1888	-24.7595	47.7725	9.9784	115.6454	-16.7301	6.0256	
17.2990	-14.3020	-0.2990	-15.7754	0.0000	1.2500	-0.0000	58.3896	-2.6317	-3.9666	42.7505	-9.1345	-10.1755	-0.0000	78.8051	-1.1181	-1.2308	95.5437	-22.8233	17.3198	-0.0000	-13.4675	1.4605	-1.8491	79.1619	-23.5358	44.5661	5.5012	114.3437	-38.0751	-4.2201	78.2338	-24.5921	47.8014	9.9957	115.7144	-16.6634	6.0979	
17.3160	-14.3087	-0.0251	-15.1820	0.0000	1.2500	-0.0000	55.7178	-2.7108	-3.7887	39.5801	-11.2445	-10.2836	-0.0000	81.2169	0.1374	-0.7572	97.6617	-22.1563	16.8918	0.0000	-13.4705	1.4588	-2.1144	79.0307	-23.7192	44.5540	5.5645	114.2693	-38.1662	-4.3123	78.3363	-24.3999	47.8337	9.9732	115.7702	-16.6322	6.1798	
17.3320	-14.3167	0.2476	-14.5898	0.0000	1.2500	-0.0000	53.1827	-2.8269	-3.4407	36.6893	-13.4055	-10.6211	-0.0000	83.5719	1.4178	-0.3853	99.5402	-21.1044	16.4031	-0.0000	-13.4862	1.4677	-2.3849	78.9287	-23.8774	44.5484	5.6147	114.1719	-38.2597	-4.3946	78.4794	-24.1909	47.8675	9.9307	115.8191	-16.6199	6.2728	
17.3490	-14.3295	0.4856	-14.0468	0.0000	1.2500	-0.0000	50.9094	-2.9363	-3.0878	34.3115	-15.3599	-10.9612	0.0000	85.7610	2.6082	-0.1955	101.0907	-19.7488	15.9420	0.0000	-13.5068	1.4852	-2.6364	78.8173	-24.0132	44.5522	5.6845	114.0312	-38.3558	-4.4642	78.6121	-23.9846	47.8632	9.9064	115.9025	-16.6286	6.3679	
17.3650	-14.3494	0.6714	-13.5639	0.0000	1.2500	-0.0000	48.9148	-3.0200	-2.7319	32.4946	-17.0572	-11.2585	0.0000	87.7814	3.6754	-0.2359	102.3034	-18.0608	15.5957	-0.0000	-13.5290	1.5161	-2.8623	78.6610	-24.1315	44.5695	5.8064	113.8248	-38.4582	-4.5157	78.7053	-23.7763	47.7807	9.9106	116.0542	-16.6655	6.4662	
17.3820	-14.3758	0.8225	-13.1301	0.0000	1.2500	-0.0000	47.1836	-3.0973	-2.3547	31.1903	-18.5486	-11.5614	0.0000	89.6416	4.6352	-0.4263	103.1945	-16.0709	15.2590	0.0000	-13.5560	1.5556	-3.0691	78.4955	-24.2271	44.5967	5.9477	113.5751	-38.5630	-4.5546	78.7885	-23.5708	47.6603	9.9334	116.2406	-16.7234	6.5668	
17.3990	-14.4089	0.9584	-12.7604	0.0000	1.2500	-0.0000	45.7964	-3.1670	-2.0834	30.4885	-19.7304	-11.8037	0.0000	91.2487	5.4479	-0.6350	103.7164	-13.9493	14.7543	-0.0000	-13.5901	1.5877	-3.2522	78.3895	-24.2874	44.6254	6.0442	113.3288	-38.6593	-4.5943	78.8976	-23.4012	47.5829	9.9812	116.4019	-16.7830	6.6578	
17.4160	-14.4541	1.0907	-12.4672	0.0000	1.2500	-0.0000	44.7860	-3.2210	-1.9969	30.4141	-20.5936	-11.9291	-0.0000	92.5779	6.0979	-0.8082	103.8676	-11.5805	13.9480	0.0000	-13.6333	1.6040	-3.4106	78.3860	-24.2987	44.6497	6.0614	113.1039	-38.7485	-4.6428	79.0490	-23.2917	47.5918	10.0744	116.5110	-16.8406	6.7318	
17.4320	-14.5067	1.2077	-12.2381	0.0000	1.2500	-0.0000	44.1221	-3.2622	-2.0063	30.9376	-21.1458	-12.0153	-0.0000	93.6505	6.6050	-0.9686	103.6547	-9.0432	12.9594	-0.0000	-13.6836	1.6129	-3.5453	78.4421	-24.2752	44.6755	6.0337	112.8825	-38.8292	-4.6923	79.2263	-23.2181	47.6438	10.1923	116.5951	-16.8997	6.7965	
17.4490	-14.5506	1.2929	-12.0519	0.0000	1.2500	-0.0000	43.7897	-3.3039	-1.9884	32.0678	-21.3090	-12.2025	0.0000	94.4397	6.9894	-1.0981	103.0423	-6.8217	12.0348	0.0000	-13.7379	1.6224	-3.6540	78.4970	-24.2459	44.7121	6.0006	112.6577	-38.8857	-4.7323	79.4151	-23.1415	47.6904	10.2796	116.6760	-16.9521	6.8622	
17.4660	-14.5865	1.3459	-11.8959	0.0000	1.2500	-0.0000	43.8051	-3.3632	-1.9275	33.8675	-20.9617	-12.6134	-0.0000	94.9384	7.2595	-1.1757	101.9862	-5.1047	11.2796	0.0000	-13.7939	1.6321	-3.7363	78.5240	-24.2264	44.7674	5.9736	112.4124	-38.9113	-4.7599	79.6251	-23.0358	47.6993	10.3075	116.7766	-16.9859	6.9435	
17.4820	-14.6141	1.3667	-11.7826	0.0000	1.2500	-0.0000	44.1522	-3.4244	-1.8357	36.2729	-20.2244	-13.1343	0.0000	95.1508	7.4111	-1.2103	100.5358	-3.7478	10.6532	-0.0000	-13.8538	1.6422	-3.7927	78.5499	-24.2010	44.8336	5.9411	112.1636	-38.9127	-4.7778	79.8467	-22.9271	47.7028	10.3048	116.8740	-17.0130	7.0256	
17.4990	-14.6164	1.3400	-11.7295	0.0000	1.2500	-0.0000	44.7679	-3.4518	-1.6336	39.1044	-19.3849	-13.5451	0.0000	95.0672	7.4453	-1.2330	98.7917	-2.7686	10.2111	0.0000	-13.9208	1.6616	-3.8221	78.5939	-24.1517	44.8955	5.9074	111.9555	-38.8942	-4.7834	80.0364	-22.8548	47.7487	10.3034	116.9212	-17.0602	7.0749	
17.5160	-14.5818	1.2475	-11.7350	0.0000	1.2500	-0.0000	45.6613	-3.4277	-1.2509	42.3941	-18.4748	-13.7597	0.0000	94.6990	7.3594	-1.2451	96.7589	-2.2834	9.9899	-0.0000	-14.0020	1.6988	-3.8241	78.6668	-24.0773	44.9545	5.8741	111.7887	-38.8516	-4.7737	80.1843	-22.8279	47.8761	10.3069	116.8908	-17.1430	7.0762	
